<svg xmlns="http://www.w3.org/2000/svg" width="68" height="66" viewBox="0 0 68 66"><metadata><?xpacket begin="﻿" id="W5M0MpCehiHzreSzNTczkc9d"?><x:xmpmeta xmlns:x="adobe:ns:meta/" x:xmptk="Adobe XMP Core 5.6-c140 79.160451, 2017/05/06-01:08:21        "><rdf:RDF xmlns:rdf="http://www.w3.org/1999/02/22-rdf-syntax-ns#"><rdf:Description rdf:about="" xmlns:xmp="http://ns.adobe.com/xap/1.0/"><xmp:CreatorTool>Adobe Photoshop 21.1 (Windows)</xmp:CreatorTool></rdf:Description></rdf:RDF></x:xmpmeta><?xpacket end="w"?></metadata><defs><style>.cls-1 {fill: #3172b9;fill-rule: evenodd;}</style></defs><path id="icon" class="cls-1" d="M335.393,1081a18.072,18.072,0,0,0-18.493,17.51l-0.124,4.97a2.486,2.486,0,0,0,4.97.11l0.125-4.97a13.08,13.08,0,1,1,12.752,13.25l-31.123-.67a17.906,17.906,0,1,0,17.6,18.29l0.123-4.92a2.486,2.486,0,0,0-4.971-.11l-0.123,4.92a13.08,13.08,0,1,1-12.752-13.25l31.123,0.67A17.906,17.906,0,1,0,335.393,1081Z" transform="translate(-285 -1081)"/></svg>
